{
    "asset" : {
        "generator" : "Khronos glTF Blender I/O v1.0.5",
        "version" : "2.0"
    },
    "scene" : 0,
    "scenes" : [
        {
            "name" : "Scene",
            "nodes" : [
                0
            ]
        }
    ],
    "nodes" : [
        {
            "mesh" : 0,
            "name" : "Cube.004",
            "rotation" : [
                0,
                0.7071067690849304,
                0,
                0.7071067690849304
            ],
            "scale" : [
                1.9048606157302856,
                1.9048606157302856,
                1.9048606157302856
            ],
            "translation" : [
                0.09687936305999756,
                0,
                0.02791595458984375
            ]
        }
    ],
    "materials" : [
        {
            "doubleSided" : true,
            "name" : "Material.006",
            "pbrMetallicRoughness" : {
                "baseColorFactor" : [
                    0.0985037237405777,
                    0.0985037237405777,
                    0.0985037237405777,
                    1
                ],
                "metallicFactor" : 0,
                "roughnessFactor" : 0.690034806728363
            }
        }
    ],
    "meshes" : [
        {
            "name" : "Mesh",
            "primitives" : [
                {
                    "attributes" : {
                        "POSITION" : 0,
                        "NORMAL" : 1,
                        "TEXCOORD_0" : 2,
                        "COLOR_0" : 3
                    },
                    "indices" : 4,
                    "material" : 0
                }
            ]
        }
    ],
    "accessors" : [
        {
            "bufferView" : 0,
            "componentType" : 5126,
            "count" : 3605,
            "max" : [
                6.307586193084717,
                0.9628629088401794,
                2.6131770610809326
            ],
            "min" : [
                -2.5298638343811035,
                -0.3600308299064636,
                -2.6131770610809326
            ],
            "type" : "VEC3"
        },
        {
            "bufferView" : 1,
            "componentType" : 5126,
            "count" : 3605,
            "type" : "VEC3"
        },
        {
            "bufferView" : 2,
            "componentType" : 5126,
            "count" : 3605,
            "type" : "VEC2"
        },
        {
            "bufferView" : 3,
            "componentType" : 5126,
            "count" : 3605,
            "type" : "VEC4"
        },
        {
            "bufferView" : 4,
            "componentType" : 5123,
            "count" : 4536,
            "type" : "SCALAR"
        }
    ],
    "bufferViews" : [
        {
            "buffer" : 0,
            "byteLength" : 43260,
            "byteOffset" : 0
        },
        {
            "buffer" : 0,
            "byteLength" : 43260,
            "byteOffset" : 43260
        },
        {
            "buffer" : 0,
            "byteLength" : 28840,
            "byteOffset" : 86520
        },
        {
            "buffer" : 0,
            "byteLength" : 57680,
            "byteOffset" : 115360
        },
        {
            "buffer" : 0,
            "byteLength" : 9072,
            "byteOffset" : 173040
        }
    ],
    "buffers" : [
        {
            "byteLength" : 182112,
            "uri" : "ship.bin"
        }
    ]
}
